<svg xmlns="http://www.w3.org/2000/svg" viewBox="0 0 300 120">
  <path fill="#FFFFFF" d="M38.95,47.55c-6.43,0-11.64,5.21-11.64,11.64s5.21,11.64,11.64,11.64S50.59,65.62,50.59,59.19S45.38,47.55,38.95,47.55z"/>
  <path fill="#FFFFFF" d="M87.93,49.46v21.47h-8.75V50.82c0-3.43-1.37-5.15-4.12-5.15c-3.26,0-4.89,2.23-4.89,6.69v18.58h-8.75V50.82c0-3.43-1.37-5.15-4.12-5.15c-3.26,0-4.89,2.23-4.89,6.69v18.58h-8.75V41.44h7.55l0.69,3.43c2.06-2.74,5.15-4.12,9.27-4.12c4.29,0,7.21,1.71,8.75,5.15c2.06-3.43,5.32-5.15,9.78-5.15C85.01,40.75,87.93,43.83,87.93,49.46z"/>
  <path fill="#FFFFFF" d="M133.42,41.44l-12.87,37.45h-9.44l4.63-12.87l-8.75-24.58h9.44l4.46,15.49l4.46-15.49H133.42z"/>
  <path fill="#FFFFFF" d="M158.69,47.55c-6.43,0-11.64,5.21-11.64,11.64s5.21,11.64,11.64,11.64s11.64-5.21,11.64-11.64S165.12,47.55,158.69,47.55z"/>
  <path fill="#FFFFFF" d="M207.67,49.46v21.47h-8.75V50.82c0-3.43-1.37-5.15-4.12-5.15c-3.26,0-4.89,2.23-4.89,6.69v18.58h-8.75V41.44h7.55l0.69,3.43c2.06-2.74,5.15-4.12,9.27-4.12C204.75,40.75,207.67,43.83,207.67,49.46z"/>
  <path fill="#FFFFFF" d="M253.16,41.44l-12.87,37.45h-9.44l4.63-12.87l-8.75-24.58h9.44l4.46,15.49l4.46-15.49H253.16z"/>
</svg> 