<svg xmlns="http://www.w3.org/2000/svg" viewBox="0 0 300 120">
  <path fill="#FFFFFF" d="M50 30c-11 0-20 9-20 20s9 20 20 20 20-9 20-20-9-20-20-20zm0 30c-5.5 0-10-4.5-10-10s4.5-10 10-10 10 4.5 10 10-4.5 10-10 10z"/>
  <path fill="#FFFFFF" d="M100 30c-11 0-20 9-20 20s9 20 20 20 20-9 20-20-9-20-20-20zm0 30c-5.5 0-10-4.5-10-10s4.5-10 10-10 10 4.5 10 10-4.5 10-10 10z"/>
  <path fill="#FFFFFF" d="M150 30c-11 0-20 9-20 20s9 20 20 20 20-9 20-20-9-20-20-20zm0 30c-5.5 0-10-4.5-10-10s4.5-10 10-10 10 4.5 10 10-4.5 10-10 10z"/>
  <path fill="#FFFFFF" d="M200 30c-11 0-20 9-20 20v40h10V50c0-5.5 4.5-10 10-10s10 4.5 10 10v40h10V50c0-11-9-20-20-20z"/>
  <path fill="#FFFFFF" d="M240 20l-15 15 15 15 15-15z"/>
</svg> 